<svg width="144" height="23" viewBox="0 0 144 23" fill="none" xmlns="http://www.w3.org/2000/svg">
<path fill-rule="evenodd" clip-rule="evenodd" d="M2.32961 0.289849H30.4529C31.7324 0.289849 32.7817 1.34812 32.7817 2.64108V4.13629H29.9528V2.0658H7.57246V20.9339L20.7616 20.9762C18.8202 20.0361 17.4294 18.7732 16.8906 17.3473V14.8588C18.0345 17.8922 23.0143 20.1882 28.9535 20.1882C34.5339 20.1882 39.2656 18.1624 40.7688 15.4014V17.8857C39.4826 20.2475 34.1262 22.7125 30.4529 22.7125H2.32961C1.0498 22.7125 0 21.6565 0 20.3636V2.64108C0 1.34812 1.0498 0.289849 2.32961 0.289849ZM40.7688 13.9968C39.263 16.7578 34.531 18.7813 28.9535 18.7813C23.0163 18.7813 18.038 16.4897 16.8906 13.454V11.0543C18.038 14.0877 23.0163 16.3818 28.9535 16.3818C34.5339 16.3818 39.2656 14.3559 40.7688 11.5971V13.9968ZM36.5698 13.2278C35.9644 13.5471 35.2848 13.8236 34.5422 14.0496C32.9124 13.4307 30.9987 13.0719 28.9535 13.0719C26.8921 13.0719 24.9657 13.4372 23.3274 14.0668C22.5829 13.8384 21.9107 13.5619 21.3202 13.2406C23.2668 12.0136 25.9704 11.2509 28.9535 11.2509C31.9267 11.2509 34.6224 12.0091 36.5698 13.2278ZM38.4661 11.8552C38.1708 12.1572 37.8333 12.4379 37.4551 12.696C35.4896 11.1156 32.4081 10.0934 28.9535 10.0934C25.4991 10.0934 22.4185 11.1156 20.4541 12.696C20.0808 12.4254 19.7541 12.1314 19.4734 11.817C21.2801 9.71285 24.8542 8.27241 28.9535 8.27241C33.077 8.27241 36.6697 9.73009 38.4661 11.8552ZM28.9535 5.37855C34.037 5.37855 38.3136 7.59023 39.4123 10.5411C39.2713 10.8243 39.1015 11.0989 38.8993 11.3584C37.3026 8.92316 33.4433 7.19731 28.9535 7.19731C24.5103 7.19731 20.6862 8.88725 19.0592 11.2845C18.8585 10.9868 18.6964 10.6697 18.574 10.3425C19.7867 7.49062 23.9857 5.37855 28.9535 5.37855Z" fill="#EE2722"/>
<path fill-rule="evenodd" clip-rule="evenodd" d="M74.7237 2.52688C72.2551 1.03532 67.422 0.177671 62.0616 0.20749L46.8927 0.289849V22.7125L61.2872 22.6301C61.3172 22.6301 61.3435 22.6301 61.3586 22.6301C61.3767 22.6301 61.3986 22.6301 61.4328 22.6301C62.2707 22.6301 63.4675 22.5942 65.0179 22.5247C66.5664 22.4547 69.1125 22.3006 70.8258 21.8974C80.822 19.5377 84.9635 8.70327 74.7237 2.52688ZM60.4632 19.8505L55.3703 19.9325V3.39894L60.9466 3.31698C61.4646 3.31049 63.8191 3.50076 64.4363 3.61862C69.5651 4.60346 71.6775 5.80494 71.6775 11.4791C71.6775 19.0476 66.8966 19.7446 60.4632 19.8505Z" fill="#EE2722"/>
<path fill-rule="evenodd" clip-rule="evenodd" d="M107.29 0.289849H113.356L99.7583 10.2285L113.675 22.7125H103.868L93.0727 13.2936V22.7125H85.0109V0.289849H92.9874V10.82L107.29 0.289849Z" fill="#EE2722"/>
<path fill-rule="evenodd" clip-rule="evenodd" d="M132.686 -3.11812e-05C136.866 -3.11812e-05 140.757 0.69331 144 1.88059L142.652 5.74793H141.605C139.361 4.02208 136.233 2.9346 132.893 2.9346C126.455 2.9346 121.207 6.89303 121.207 11.7472C121.207 16.5996 126.455 20.5601 132.893 20.5601C136.267 20.6151 140.024 19.8438 142.74 18.5725H143.574L142.571 21.4412C139.612 22.4276 136.21 23 132.603 23C117.179 23 112.228 17.3853 112.228 11.2127C112.228 5.03613 121.417 -3.11812e-05 132.686 -3.11812e-05Z" fill="#EE2722"/>
</svg>
