<svg width="27" height="19" viewBox="0 0 27 19" fill="none" xmlns="http://www.w3.org/2000/svg">
<path d="M0 13.35C0 10.9861 1.72104 9.2606 3.51208 9.2606C4.06048 9.2606 4.88892 9.26059 5.30313 9.76906C5.57733 9.13077 5.30313 8.04352 4.68472 6.83185C3.72211 4.85208 2.20526 4.01905 0.484224 3.44568L2.61948 0C8.06263 1.4659 11.3705 5.43086 11.3705 10.8563C11.3705 15.0052 9.03107 18.0073 5.30897 18.0073C1.86106 18.0127 0 16.0329 0 13.35Z" fill="white"/>
<path d="M15.5652 13.35C15.5652 10.9861 17.2862 9.2606 19.0773 9.2606C19.6257 9.2606 20.4541 9.26059 20.8683 9.76906C21.1425 9.13077 20.8683 8.04352 20.2499 6.83185C19.2873 4.85208 17.7704 4.01905 16.0494 3.44568L18.1847 0C23.6278 1.4659 26.9357 5.43086 26.9357 10.8563C26.9357 15.0052 24.5963 18.0073 20.8742 18.0073C17.4262 18.0127 15.5652 16.0329 15.5652 13.35Z" fill="white"/>
</svg>
